<?xml version="1.0" encoding="UTF-8"?>
<svg width="36px" height="32px" viewBox="0 0 36 32" version="1.1" xmlns="http://www.w3.org/2000/svg" xmlns:xlink="http://www.w3.org/1999/xlink">
    <!-- Generator: Sketch 54.1 (76490) - https://sketchapp.com -->
    <title>biohazard</title>
    <desc>Created with Sketch.</desc>
    <g id="Design" stroke="none" stroke-width="1" fill="none" fill-rule="evenodd">
        <g id="Protips_New" transform="translate(-468.000000, -728.000000)" fill="#FFFFFF" fill-rule="nonzero">
            <g id="Feature" transform="translate(160.000000, 704.000000)">
                <g id="biohazard" transform="translate(308.000000, 24.000000)">
                    <path d="M18.0249567,7.05025997 C19.1854419,7.05025997 20.2835355,7.28734835 21.3192374,7.6492201 C22.1490468,7.00658579 22.7916811,6.13310225 23.159792,5.10987868 C21.5875217,4.42980936 19.8530329,4.0492201 18.0311958,4.0492201 C16.2155979,4.0492201 14.4811092,4.42357019 12.9088388,5.10363951 C13.2769497,6.12686308 13.9195841,7.00034662 14.7493934,7.64298094 C15.7788562,7.28734835 16.8707106,7.05025997 18.0249567,7.05025997 L18.0249567,7.05025997 Z M10.2696707,27.4336222 C11.0183709,26.6974003 11.542461,25.7864818 11.7982669,24.7882149 C9.74558059,23.1410745 8.37920277,20.7140381 8.12339688,17.9500867 C7.59306759,17.7753899 7.05025997,17.6630849 6.4762565,17.6630849 C6.00207972,17.6630849 5.52790295,17.7254766 5.07244367,17.8564991 C5.32824957,21.7746967 7.30606586,25.2187175 10.2696707,27.4336222 L10.2696707,27.4336222 Z M24.2578856,24.7757366 C24.5136915,25.7740035 25.0377816,26.6911612 25.7864818,27.427383 C28.7438475,25.2124783 30.7216638,21.7684575 30.9649913,17.85026 C30.5157712,17.7254766 30.0478336,17.6630849 29.579896,17.6630849 C29.0058925,17.6630849 28.4568458,17.7816291 27.9202773,17.9563258 C27.6644714,20.7140381 26.2980936,23.1285962 24.2578856,24.7757366 Z M31.3393414,11.9854419 C30.2412478,11.3365685 29.0745234,10.94974 27.8890815,10.7438475 C28.2634315,9.63951473 28.5129983,8.47279029 28.5129983,7.23743501 C28.5129983,4.67937608 27.6083189,2.19618718 25.9549393,0.237088388 C25.7989601,0.0499133449 25.5431542,0.00623916811 25.3310225,0.124783362 C25.12513,0.243327556 25.0315425,0.499133449 25.1064125,0.729982669 C25.387175,1.59098787 25.5181976,2.37088388 25.5181976,3.13206239 C25.5181976,7.36221837 22.1615251,10.8 18.0311958,10.8 C13.9008666,10.8 10.5441941,7.36221837 10.5441941,3.13206239 C10.5441941,2.37712305 10.6814558,1.59098787 10.9559792,0.729982669 C11.0308492,0.499133449 10.9372617,0.243327556 10.7313692,0.124783362 C10.5192374,0.00623916811 10.2634315,0.0499133449 10.1074523,0.237088388 C8.46031196,2.19618718 7.54939341,4.67937608 7.54939341,7.23743501 C7.54939341,8.47279029 7.79272097,9.63951473 8.17331023,10.7438475 C6.99410745,10.94974 5.82114385,11.3365685 4.72305026,11.9854419 C2.56429809,13.2644714 0.917157712,15.3109185 0.0873483536,17.7504333 C0.00623916811,17.9812825 0.0998266898,18.2308492 0.305719237,18.3618718 C0.511611785,18.4866551 0.773656846,18.4429809 0.929636049,18.2620451 C1.51611785,17.5882149 2.11507799,17.070364 2.75147314,16.6960139 C6.32651646,14.5809359 10.912305,15.8412478 12.9774697,19.5036395 C15.0426343,23.1660312 13.8135182,27.8641248 10.2384749,29.9792028 C9.60207972,30.359792 8.86585789,30.6280763 8.00485269,30.8152513 C7.77400347,30.8651646 7.60554593,31.0772964 7.60554593,31.3206239 C7.6117851,31.5701906 7.77400347,31.7760832 8.01109185,31.8197574 C10.4880416,32.3064125 13.0398614,31.8696707 15.1986135,30.5906412 C16.3216638,29.9292894 17.2512998,29.0620451 18.0249567,28.0887348 C18.7986135,29.0620451 19.7282496,29.9292894 20.8512998,30.5906412 C23.010052,31.8696707 25.5618718,32.3064125 28.0388215,31.8197574 C28.2759099,31.7760832 28.4381282,31.5701906 28.4443674,31.3206239 C28.4443674,31.0772964 28.282149,30.8651646 28.0450607,30.8152513 C27.1778163,30.6343154 26.4478336,30.359792 25.8114385,29.9792028 C22.2363951,27.8641248 21.007279,23.1660312 23.0724437,19.5036395 C25.1376083,15.8412478 29.7233969,14.5809359 33.2984402,16.6960139 C33.9348354,17.0766031 34.5337955,17.5882149 35.1202773,18.2620451 C35.2762565,18.4429809 35.5383016,18.4866551 35.7441941,18.3618718 C35.9500867,18.2370884 36.0436742,17.9812825 35.962565,17.7504333 C35.145234,15.3109185 33.4980936,13.2582322 31.3393414,11.9854419 L31.3393414,11.9854419 Z M18.0249567,20.0339688 C16.3715771,20.0339688 15.030156,18.6925477 15.030156,17.0391681 C15.030156,15.3857886 16.3715771,14.0443674 18.0249567,14.0443674 C19.6783362,14.0443674 21.0197574,15.3857886 21.0197574,17.0391681 C21.0197574,18.6925477 19.6783362,20.0339688 18.0249567,20.0339688 Z" id="Shape"></path>
                </g>
            </g>
        </g>
    </g>
</svg>