<?xml version="1.0" encoding="UTF-8"?>
<svg width="36px" height="36px" viewBox="0 0 36 36" version="1.1" xmlns="http://www.w3.org/2000/svg" xmlns:xlink="http://www.w3.org/1999/xlink">
    <!-- Generator: Sketch 54.1 (76490) - https://sketchapp.com -->
    <title>Shape</title>
    <desc>Created with Sketch.</desc>
    <g id="Design" stroke="none" stroke-width="1" fill="none" fill-rule="evenodd">
        <g id="Protips_New" transform="translate(-146.000000, -2479.000000)" fill="#442B9A" fill-rule="nonzero">
            <g id="Our-story" transform="translate(146.000000, 2302.000000)">
                <path d="M20.2505052,188.753502 L20.2505052,186.777618 C18.2677563,184.225141 16.9388926,181.201547 16.4467209,177.974035 C16.2990694,177.024767 15.1108263,176.652092 14.4920961,177.390411 C13.0085499,179.141283 11.8413999,181.194515 11.0539251,183.472758 C13.4585355,186.165867 16.6787447,188.015182 20.2505052,188.753502 Z M28.1252526,181.496875 C25.0175398,181.496875 22.500433,184.021224 22.500433,187.129198 L22.500433,191.305978 C15.1600434,190.870018 8.93055574,186.348689 6.11814595,179.935856 C5.7314396,179.056904 4.48694827,179.007683 4.07914885,179.872571 C2.91199879,182.340668 2.25108248,185.097062 2.25108248,188.00815 C2.25108248,192.986534 4.64866183,197.634432 8.23448432,201.079923 C9.16257955,201.972938 10.0695817,202.711258 10.9695528,203.386293 L0.851908613,205.917674 C0.0995889932,206.107528 -0.237900182,206.979448 0.183961287,207.633388 C1.40735955,209.524893 4.43070007,212.73131 10.9554908,212.998511 C11.5179728,213.019606 12.0804547,212.815689 12.5093472,212.443013 L17.0935752,208.498277 L22.500433,208.498277 C28.7158586,208.498277 33.7500722,203.470672 33.7500722,197.254724 L33.7500722,185.997108 L36,181.496875 L28.1252526,181.496875 Z M28.1252526,188.254257 C27.5065224,188.254257 27.0002887,187.747981 27.0002887,187.129198 C27.0002887,186.510416 27.5065224,186.00414 28.1252526,186.00414 C28.7439827,186.00414 29.2502165,186.510416 29.2502165,187.129198 C29.2502165,187.747981 28.7439827,188.254257 28.1252526,188.254257 Z" id="Shape"></path>
            </g>
        </g>
    </g>
</svg>