<?xml version="1.0" encoding="UTF-8"?>
<svg width="36px" height="22px" viewBox="0 0 36 22" version="1.1" xmlns="http://www.w3.org/2000/svg" xmlns:xlink="http://www.w3.org/1999/xlink">
    <!-- Generator: Sketch 54.1 (76490) - https://sketchapp.com -->
    <title>handshake</title>
    <desc>Created with Sketch.</desc>
    <g id="Design" stroke="none" stroke-width="1" fill="none" fill-rule="evenodd">
        <g id="Protips_New" transform="translate(-753.000000, -733.000000)" fill="#442B9A" fill-rule="nonzero">
            <g id="Feature" transform="translate(160.000000, 704.000000)">
                <g id="handshake" transform="translate(593.000000, 29.000000)">
                    <path d="M24.451875,0 L19.62,0 C19.17,0 18.736875,0.171428571 18.405,0.48 L12.875625,5.62285714 C12.87,5.62857143 12.864375,5.64 12.85875,5.64571429 C11.925,6.53714286 11.941875,7.96 12.740625,8.84571429 C13.455,9.64 14.956875,9.85142857 15.89625,9 C15.901875,8.99428571 15.913125,8.99428571 15.91875,8.98857143 L20.413125,4.80571429 C20.77875,4.46857143 21.3525,4.49142857 21.684375,4.86285714 C22.021875,5.23428571 21.99375,5.81142857 21.628125,6.15428571 L20.16,7.52 L28.35,14.2742857 C28.513125,14.4114286 28.659375,14.56 28.794375,14.7142857 L28.794375,3.65714286 L25.723125,0.537142857 C25.39125,0.194285714 24.93,0 24.451875,0 Z M30.6,3.66857143 L30.6,16.4628571 C30.6,17.4742857 31.404375,18.2914286 32.4,18.2914286 L36,18.2914286 L36,3.66857143 L30.6,3.66857143 Z M33.3,16.4628571 C32.805,16.4628571 32.4,16.0514286 32.4,15.5485714 C32.4,15.0457143 32.805,14.6342857 33.3,14.6342857 C33.795,14.6342857 34.2,15.0457143 34.2,15.5485714 C34.2,16.0514286 33.795,16.4628571 33.3,16.4628571 Z M0,18.2857143 L3.6,18.2857143 C4.595625,18.2857143 5.4,17.4685714 5.4,16.4571429 L5.4,3.66857143 L0,3.66857143 L0,18.2857143 Z M2.7,14.6342857 C3.195,14.6342857 3.6,15.0457143 3.6,15.5485714 C3.6,16.0514286 3.195,16.4628571 2.7,16.4628571 C2.205,16.4628571 1.8,16.0514286 1.8,15.5485714 C1.8,15.04 2.205,14.6342857 2.7,14.6342857 Z M27.219375,15.6971429 L18.82125,8.77142857 L17.13375,10.3428571 C15.463125,11.8914286 12.90375,11.7428571 11.413125,10.0914286 C9.9,8.41142857 10.018125,5.81142857 11.660625,4.28 L16.261875,0 L11.548125,0 C11.07,0 10.614375,0.194285714 10.276875,0.537142857 L7.2,3.65714286 L7.2,16.4514286 L8.229375,16.4514286 L13.32,21.1314286 C14.86125,22.4057143 17.128125,22.1657143 18.3825,20.6 L18.39375,20.5885714 L19.400625,21.4742857 C20.295,22.2171429 21.616875,22.0742857 22.3425,21.1657143 L24.10875,18.96 L24.4125,19.2114286 C25.183125,19.8457143 26.319375,19.7314286 26.94375,18.9428571 L27.478125,18.2742857 C28.108125,17.4857143 27.99,16.3371429 27.219375,15.6971429 L27.219375,15.6971429 Z" id="Shape"></path>
                </g>
            </g>
        </g>
    </g>
</svg>