<?xml version="1.0" encoding="UTF-8"?>
<svg width="36px" height="36px" viewBox="0 0 36 36" version="1.1" xmlns="http://www.w3.org/2000/svg" xmlns:xlink="http://www.w3.org/1999/xlink">
    <!-- Generator: Sketch 54.1 (76490) - https://sketchapp.com -->
    <title>Shape</title>
    <desc>Created with Sketch.</desc>
    <g id="Design" stroke="none" stroke-width="1" fill="none" fill-rule="evenodd">
        <g id="Protips_New" transform="translate(-774.000000, -2476.000000)" fill="#442B9A" fill-rule="nonzero">
            <g id="Our-story" transform="translate(146.000000, 2302.000000)">
                <path d="M663.812932,195.603516 C663.457152,194.781563 662.64645,194.25 661.749968,194.25 L657.249977,194.25 L657.249977,179.625 C657.249977,178.078125 655.984355,176.8125 654.437483,176.8125 C652.890611,176.8125 651.624989,178.078125 651.624989,179.625 L651.624989,189.046875 C651.624989,189.435 651.309989,189.75 650.921865,189.75 L649.515618,189.75 C649.127494,189.75 648.812494,189.435 648.812494,189.046875 L648.812494,176.8125 C648.812494,175.265625 647.546872,174 646,174 C644.453128,174 643.187506,175.265625 643.187506,176.8125 L643.187506,189.046875 C643.187506,189.435 642.872506,189.75 642.484382,189.75 L641.078135,189.75 C640.690011,189.75 640.375011,189.435 640.375011,189.046875 L640.375011,179.625 C640.375011,178.078125 639.109389,176.8125 637.562517,176.8125 C636.015645,176.8125 634.750023,178.078125 634.750023,179.625 L634.750023,194.25 L630.250032,194.25 C629.35355,194.25 628.542848,194.781563 628.187068,195.603516 C627.82931,196.424796 627.993408,197.380105 628.604723,198.034922 L635.825099,205.771406 C638.333844,208.45875 642.040711,210 646,210 C649.959289,210 653.666156,208.45875 656.175604,205.771406 L663.395277,198.034922 C664.006592,197.380105 664.17069,196.424796 663.812932,195.603516 Z M646,203.25 C642.272039,203.25 639.250014,198.75 639.250014,198.75 C639.250014,198.75 642.272039,194.25 646,194.25 C649.727961,194.25 652.749986,198.75 652.749986,198.75 C652.749986,198.75 649.727961,203.25 646,203.25 Z M646,196.5 C644.757581,196.5 643.750005,197.507578 643.750005,198.75 C643.750005,199.992422 644.757581,201 646,201 C647.242419,201 648.249995,199.992422 648.249995,198.75 C648.249995,197.507578 647.242419,196.5 646,196.5 Z" id="Shape"></path>
            </g>
        </g>
    </g>
</svg>