<?xml version="1.0" encoding="UTF-8"?>
<svg width="32px" height="36px" viewBox="0 0 32 36" version="1.1" xmlns="http://www.w3.org/2000/svg" xmlns:xlink="http://www.w3.org/1999/xlink">
    <!-- Generator: Sketch 54.1 (76490) - https://sketchapp.com -->
    <title>Shape</title>
    <desc>Created with Sketch.</desc>
    <g id="Design" stroke="none" stroke-width="1" fill="none" fill-rule="evenodd">
        <g id="Protips_New" transform="translate(-1039.000000, -726.000000)" fill="#442B9A" fill-rule="nonzero">
            <g id="Feature" transform="translate(160.000000, 704.000000)">
                <g id="user-astronaut" transform="translate(879.000000, 22.000000)">
                    <path d="M4.5,15.75 L5.44921875,15.75 C7.1859375,19.7226562 11.1375,22.5 15.75,22.5 C20.3625,22.5 24.3140625,19.7226562 26.0507812,15.75 L27,15.75 C27.61875,15.75 28.125,15.24375 28.125,14.625 L28.125,7.875 C28.125,7.25625 27.61875,6.75 27,6.75 L26.0507812,6.75 C24.3140625,2.77734375 20.3625,0 15.75,0 C11.1375,0 7.1859375,2.77734375 5.44921875,6.75 L4.5,6.75 C3.88125,6.75 3.375,7.25625 3.375,7.875 L3.375,14.625 C3.375,15.24375 3.88125,15.75 4.5,15.75 Z M7.3125,9.5625 C7.3125,8.00859375 8.82421875,6.75 10.6875,6.75 L20.8125,6.75 C22.6757812,6.75 24.1875,8.00859375 24.1875,9.5625 L24.1875,11.25 C24.1875,14.9765625 21.1640625,18 17.4375,18 L14.0625,18 C10.3359375,18 7.3125,14.9765625 7.3125,11.25 L7.3125,9.5625 Z M12.375,14.625 L13.21875,12.09375 L15.75,11.25 L13.21875,10.40625 L12.375,7.875 L11.53125,10.40625 L9,11.25 L11.53125,12.09375 L12.375,14.625 Z M23.034375,22.5984375 C20.9320312,23.9554688 18.4359375,24.75 15.75,24.75 C13.0640625,24.75 10.5679688,23.9554688 8.465625,22.5984375 C3.71953125,23.0976563 0,27.0703125 0,31.95 L0,32.625 C0,34.4882812 1.51171875,36 3.375,36 L9,36 L9,31.5 C9,30.2554688 10.0054688,29.25 11.25,29.25 L20.25,29.25 C21.4945313,29.25 22.5,30.2554688 22.5,31.5 L22.5,36 L28.125,36 C29.9882812,36 31.5,34.4882812 31.5,32.625 L31.5,31.95 C31.5,27.0703125 27.7804688,23.0976563 23.034375,22.5984375 Z M19.125,31.5 C18.50625,31.5 18,32.00625 18,32.625 C18,33.24375 18.50625,33.75 19.125,33.75 C19.74375,33.75 20.25,33.24375 20.25,32.625 C20.25,32.00625 19.74375,31.5 19.125,31.5 Z M12.375,31.5 C11.75625,31.5 11.25,32.00625 11.25,32.625 L11.25,36 L13.5,36 L13.5,32.625 C13.5,32.00625 12.99375,31.5 12.375,31.5 Z" id="Shape"></path>
                </g>
            </g>
        </g>
    </g>
</svg>