<?xml version="1.0" encoding="UTF-8"?>
<svg width="32px" height="36px" viewBox="0 0 32 36" version="1.1" xmlns="http://www.w3.org/2000/svg" xmlns:xlink="http://www.w3.org/1999/xlink">
    <!-- Generator: Sketch 54.1 (76490) - https://sketchapp.com -->
    <title>Shape</title>
    <desc>Created with Sketch.</desc>
    <g id="Design" stroke="none" stroke-width="1" fill="none" fill-rule="evenodd">
        <g id="Protips_New" transform="translate(-184.000000, -726.000000)" fill="#442B9A" fill-rule="nonzero">
            <g id="Feature" transform="translate(160.000000, 704.000000)">
                <g id="atlas" transform="translate(24.000000, 22.000000)">
                    <path d="M22.3860937,14.625 L19.6375781,14.625 C19.5328125,16.5255469 19.1777344,18.2355469 18.6384375,19.5757031 C20.5867969,18.6447656 22.0148437,16.8201563 22.3860937,14.625 L22.3860937,14.625 Z M22.3860937,12.375 C22.0141406,10.1798437 20.5867969,8.35523437 18.6384375,7.42429687 C19.1784375,8.76445312 19.5328125,10.4744531 19.6375781,12.375 L22.3860937,12.375 Z M15.75,6.84210937 C15.2092969,7.3659375 14.2896094,9.26226563 14.1025781,12.375 L17.398125,12.375 C17.2103906,9.26296875 16.2907031,7.3659375 15.75,6.84210937 Z M12.8615625,7.42429687 C10.9132031,8.35523437 9.48515625,10.1798437 9.11390625,12.375 L11.8624219,12.375 C11.9671875,10.4744531 12.3215625,8.76445312 12.8615625,7.42429687 Z M12.8615625,19.5757031 C12.3215625,18.2355469 11.9671875,16.5255469 11.8624219,14.625 L9.11390625,14.625 C9.48515625,16.8201563 10.9132031,18.6447656 12.8615625,19.5757031 Z M17.3974219,14.625 L14.101875,14.625 C14.2889063,17.7370313 15.2085938,19.6340625 15.7492969,20.1578906 C16.2907031,19.6340625 17.2103906,17.7370313 17.3974219,14.625 Z M31.5,25.2 L31.5,1.8 C31.5,0.675 30.825,0 29.7,0 L6.75,0 C2.925,0 0,2.925 0,6.75 L0,29.25 C0,33.075 2.925,36 6.75,36 L29.7,36 C30.6,36 31.5,35.325 31.5,34.2 L31.5,33.075 C31.5,32.625 31.275,32.175 30.825,31.725 C30.6,30.6 30.6,27.45 30.825,26.55 C31.275,26.325 31.5,25.875 31.5,25.2 Z M15.75,4.5 C20.7203906,4.5 24.75,8.52960937 24.75,13.5 C24.75,18.4703906 20.7203906,22.5 15.75,22.5 C10.7796094,22.5 6.75,18.4703906 6.75,13.5 C6.75,8.52960937 10.7796094,4.5 15.75,4.5 Z M27,31.5 L6.75,31.5 C5.4,31.5 4.5,30.6 4.5,29.25 C4.5,27.9 5.625,27 6.75,27 L27,27 L27,31.5 Z" id="Shape"></path>
                </g>
            </g>
        </g>
    </g>
</svg>